<svg xmlns="http://www.w3.org/2000/svg" xmlns:xlink="http://www.w3.org/1999/xlink" width="142.6637pt" height="142.6637pt" viewBox="-14.42636 -14.42636 142.6637 142.6637 "> 
<g transform="translate(0, 128.23734 ) scale(1,-1) translate(0,14.42636 )"> 
         
 <g> 
 <g stroke="rgb(0.0%,0.0%,0.0%)"> 
 <g fill="rgb(0.0%,0.0%,0.0%)"> 
 <g stroke-width="0.4pt"> 
 <g> 
 <g> 
 <g fill="rgb(100.0%,75.0%,75.0%)"> 
 <g> 
 <g fill="rgb(100.0%,75.0%,75.0%)"> 
 <path d=" M  42.67912 -14.22636 h  28.45273 v  28.45273 h  -28.45273 Z  " /> 
 </g> 
 </g> 
 <g> 
 <g transform="matrix(1.0,0.0,0.0,1.0,52.83609,-3.41666)"> 
 <g fill="rgb(0.0%,0.0%,0.0%)"> 
 <text style="stroke:none" transform="scale(1,-1) translate(4.0694,0)" text-anchor="middle"  font-size="10"> 
<tspan font-family="cmcsc" font-size="10">A</tspan></text> 
</g> 
 </g> 
 </g> 
 </g> 
 </g> 
 <g> 
 <g fill="rgb(100.0%,75.0%,75.0%)"> 
 <g> 
 <g fill="rgb(100.0%,75.0%,75.0%)"> 
 <path d=" M  -14.22636 42.67912 h  28.45273 v  28.45273 h  -28.45273 Z  " /> 
 </g> 
 </g> 
 <g> 
 <g transform="matrix(1.0,0.0,0.0,1.0,-3.85413,53.48883)"> 
 <g fill="rgb(0.0%,0.0%,0.0%)"> 
 <text style="stroke:none" transform="scale(1,-1) translate(3.85413,0)" text-anchor="middle"  font-size="10"> 
<tspan font-family="cmcsc" font-size="10">B</tspan></text> 
</g> 
 </g> 
 </g> 
 </g> 
 </g> 
 <g> 
 <g fill="rgb(100.0%,75.0%,75.0%)"> 
 <g> 
 <g fill="rgb(100.0%,75.0%,75.0%)"> 
 <path d=" M  99.58461 42.67912 h  28.45273 v  28.45273 h  -28.45273 Z  " /> 
 </g> 
 </g> 
 <g> 
 <g transform="matrix(1.0,0.0,0.0,1.0,109.88046,53.48883)"> 
 <g fill="rgb(0.0%,0.0%,0.0%)"> 
 <text style="stroke:none" transform="scale(1,-1) translate(3.93051,0)" text-anchor="middle"  font-size="10"> 
<tspan font-family="cmcsc" font-size="10">C</tspan></text> 
</g> 
 </g> 
 </g> 
 </g> 
 </g> 
 <g> 
 <g fill="rgb(100.0%,75.0%,75.0%)"> 
 <g> 
 <g fill="rgb(100.0%,75.0%,75.0%)"> 
 <path d=" M  42.67912 99.58461 h  28.45273 v  28.45273 h  -28.45273 Z  " /> 
 </g> 
 </g> 
 <g> 
 <g transform="matrix(1.0,0.0,0.0,1.0,52.75969,110.39432)"> 
 <g fill="rgb(0.0%,0.0%,0.0%)"> 
 <text style="stroke:none" transform="scale(1,-1) translate(4.1458,0)" text-anchor="middle"  font-size="10"> 
<tspan font-family="cmcsc" font-size="10">D</tspan></text> 
</g> 
 </g> 
 </g> 
 </g> 
 </g> 
 <g> 
 <g stroke-width="1.0pt"> 
 <path d=" M  99.38461 42.48662 L  73.32813 16.43109  " style="fill:none"/> 
 <g> 
 <g transform="matrix(-0.7071,-0.70714,0.70714,-0.7071,73.32813,16.43109)"> 
 <g> 
 <g stroke-width="0.8pt"> 
 <g stroke-dasharray="none" stroke-dashoffset="0.0pt"> 
 <g stroke-linecap="round"> 
 <g stroke-linejoin="round"> 
 <path d=" M  -1.74 2.32 C  -1.595 1.45 0.0 0.14499 0.435 0.0 C  0.0 -0.14499 -1.595 -1.45 -1.74 -2.32  " style="fill:none"/> 
 </g> 
 </g> 
 </g> 
 </g> 
 </g> 
 </g> 
 </g> 
 <g> 
 <g> 
 <g transform="matrix(0.7071,0.70714,-0.70714,0.7071,72.82205,21.34557)"> 
 <g fill="rgb(0.0%,0.0%,0.0%)"> 
 <text style="stroke:none" transform="scale(1,-1) translate(0.0,0)" text-anchor="middle"  font-size="10"> 
</text> 
</g> 
 </g> 
 </g> 
 </g> 
 </g> 
 </g> 
 <g> 
 <g stroke-width="1.0pt"> 
 <path d=" M  14.42636 42.48662 L  40.48285 16.43109  " style="fill:none"/> 
 <g> 
 <g transform="matrix(0.7071,-0.70714,0.70714,0.7071,40.48285,16.43109)"> 
 <g> 
 <g stroke-width="0.8pt"> 
 <g stroke-dasharray="none" stroke-dashoffset="0.0pt"> 
 <g stroke-linecap="round"> 
 <g stroke-linejoin="round"> 
 <path d=" M  -1.74 2.32 C  -1.595 1.45 0.0 0.14499 0.435 0.0 C  0.0 -0.14499 -1.595 -1.45 -1.74 -2.32  " style="fill:none"/> 
 </g> 
 </g> 
 </g> 
 </g> 
 </g> 
 </g> 
 </g> 
 <g> 
 <g> 
 <g transform="matrix(0.7071,-0.70714,0.70714,0.7071,40.98892,21.34557)"> 
 <g fill="rgb(0.0%,0.0%,0.0%)"> 
 <text style="stroke:none" transform="scale(1,-1) translate(0.0,0)" text-anchor="middle"  font-size="10"> 
</text> 
</g> 
 </g> 
 </g> 
 </g> 
 </g> 
 </g> 
 <g> 
 <g stroke-width="1.0pt"> 
 <path d=" M  71.33185 99.3921 L  97.38834 73.33658  " style="fill:none"/> 
 <g> 
 <g transform="matrix(0.7071,-0.70714,0.70714,0.7071,97.38834,73.33658)"> 
 <g> 
 <g stroke-width="0.8pt"> 
 <g stroke-dasharray="none" stroke-dashoffset="0.0pt"> 
 <g stroke-linecap="round"> 
 <g stroke-linejoin="round"> 
 <path d=" M  -1.74 2.32 C  -1.595 1.45 0.0 0.14499 0.435 0.0 C  0.0 -0.14499 -1.595 -1.45 -1.74 -2.32  " style="fill:none"/> 
 </g> 
 </g> 
 </g> 
 </g> 
 </g> 
 </g> 
 </g> 
 <g> 
 <g> 
 <g transform="matrix(0.7071,-0.70714,0.70714,0.7071,97.89441,78.25105)"> 
 <g fill="rgb(0.0%,0.0%,0.0%)"> 
 <text style="stroke:none" transform="scale(1,-1) translate(0.0,0)" text-anchor="middle"  font-size="10"> 
</text> 
</g> 
 </g> 
 </g> 
 </g> 
 </g> 
 </g> 
 <g> 
 <g stroke-width="1.0pt"> 
 <path d=" M  42.47913 99.3921 L  16.42264 73.33658  " style="fill:none"/> 
 <g> 
 <g transform="matrix(-0.7071,-0.70714,0.70714,-0.7071,16.42264,73.33658)"> 
 <g> 
 <g stroke-width="0.8pt"> 
 <g stroke-dasharray="none" stroke-dashoffset="0.0pt"> 
 <g stroke-linecap="round"> 
 <g stroke-linejoin="round"> 
 <path d=" M  -1.74 2.32 C  -1.595 1.45 0.0 0.14499 0.435 0.0 C  0.0 -0.14499 -1.595 -1.45 -1.74 -2.32  " style="fill:none"/> 
 </g> 
 </g> 
 </g> 
 </g> 
 </g> 
 </g> 
 </g> 
 <g> 
 <g> 
 <g transform="matrix(0.7071,0.70714,-0.70714,0.7071,15.91656,78.25105)"> 
 <g fill="rgb(0.0%,0.0%,0.0%)"> 
 <text style="stroke:none" transform="scale(1,-1) translate(0.0,0)" text-anchor="middle"  font-size="10"> 
</text> 
</g> 
 </g> 
 </g> 
 </g> 
 </g> 
 </g> 
 </g> 
 </g> 
 </g> 
 </g> 
 </g> 
                           </g> 
</svg> 
