<svg xmlns="http://www.w3.org/2000/svg" xmlns:xlink="http://www.w3.org/1999/xlink" width="199.56918pt" height="199.56918pt" viewBox="-14.42636 42.47913 199.56918 199.56918 "> 
<g transform="translate(0, 242.04831 ) scale(1,-1) translate(0,-42.47913 )"> 
         
 <g> 
 <g stroke="rgb(0.0%,0.0%,0.0%)"> 
 <g fill="rgb(0.0%,0.0%,0.0%)"> 
 <g stroke-width="0.4pt"> 
 <g> 
 <g> 
 <g fill="rgb(100.0%,75.0%,75.0%)"> 
 <g> 
 <g fill="rgb(100.0%,75.0%,75.0%)"> 
 <path d=" M  42.67912 213.39558 h  28.45273 v  28.45273 h  -28.45273 Z  " /> 
 </g> 
 </g> 
 <g> 
 <g transform="matrix(1.0,0.0,0.0,1.0,52.83609,224.20529)"> 
 <g fill="rgb(0.0%,0.0%,0.0%)"> 
 <text style="stroke:none" transform="scale(1,-1) translate(4.0694,0)" text-anchor="middle"  font-size="10"> 
<tspan font-family="cmcsc" font-size="10">A</tspan></text> 
</g> 
 </g> 
 </g> 
 </g> 
 </g> 
 <g> 
 <g fill="rgb(100.0%,75.0%,75.0%)"> 
 <g> 
 <g fill="rgb(100.0%,75.0%,75.0%)"> 
 <path d=" M  99.58461 156.4901 h  28.45273 v  28.45273 h  -28.45273 Z  " /> 
 </g> 
 </g> 
 <g> 
 <g transform="matrix(1.0,0.0,0.0,1.0,109.95685,167.2998)"> 
 <g fill="rgb(0.0%,0.0%,0.0%)"> 
 <text style="stroke:none" transform="scale(1,-1) translate(3.85413,0)" text-anchor="middle"  font-size="10"> 
<tspan font-family="cmcsc" font-size="10">B</tspan></text> 
</g> 
 </g> 
 </g> 
 </g> 
 </g> 
 <g> 
 <g fill="rgb(100.0%,75.0%,75.0%)"> 
 <g> 
 <g fill="rgb(100.0%,75.0%,75.0%)"> 
 <path d=" M  42.67912 99.58461 h  28.45273 v  28.45273 h  -28.45273 Z  " /> 
 </g> 
 </g> 
 <g> 
 <g transform="matrix(1.0,0.0,0.0,1.0,52.97498,110.39432)"> 
 <g fill="rgb(0.0%,0.0%,0.0%)"> 
 <text style="stroke:none" transform="scale(1,-1) translate(3.93051,0)" text-anchor="middle"  font-size="10"> 
<tspan font-family="cmcsc" font-size="10">C</tspan></text> 
</g> 
 </g> 
 </g> 
 </g> 
 </g> 
 <g> 
 <g fill="rgb(100.0%,75.0%,75.0%)"> 
 <g> 
 <g fill="rgb(100.0%,75.0%,75.0%)"> 
 <path d=" M  42.67912 42.67912 h  28.45273 v  28.45273 h  -28.45273 Z  " /> 
 </g> 
 </g> 
 <g> 
 <g transform="matrix(1.0,0.0,0.0,1.0,52.75969,53.48883)"> 
 <g fill="rgb(0.0%,0.0%,0.0%)"> 
 <text style="stroke:none" transform="scale(1,-1) translate(4.1458,0)" text-anchor="middle"  font-size="10"> 
<tspan font-family="cmcsc" font-size="10">D</tspan></text> 
</g> 
 </g> 
 </g> 
 </g> 
 </g> 
 <g> 
 <g fill="rgb(100.0%,75.0%,75.0%)"> 
 <g> 
 <g fill="rgb(100.0%,75.0%,75.0%)"> 
 <path d=" M  156.4901 99.58461 h  28.45273 v  28.45273 h  -28.45273 Z  " /> 
 </g> 
 </g> 
 <g> 
 <g transform="matrix(1.0,0.0,0.0,1.0,167.00818,110.39432)"> 
 <g fill="rgb(0.0%,0.0%,0.0%)"> 
 <text style="stroke:none" transform="scale(1,-1) translate(3.70828,0)" text-anchor="middle"  font-size="10"> 
<tspan font-family="cmcsc" font-size="10">E</tspan></text> 
</g> 
 </g> 
 </g> 
 </g> 
 </g> 
 <g> 
 <g fill="rgb(100.0%,75.0%,75.0%)"> 
 <g> 
 <g fill="rgb(100.0%,75.0%,75.0%)"> 
 <path d=" M  -14.22636 156.4901 h  28.45273 v  28.45273 h  -28.45273 Z  " /> 
 </g> 
 </g> 
 <g> 
 <g transform="matrix(1.0,0.0,0.0,1.0,-3.56247,167.2998)"> 
 <g fill="rgb(0.0%,0.0%,0.0%)"> 
 <text style="stroke:none" transform="scale(1,-1) translate(3.56247,0)" text-anchor="middle"  font-size="10"> 
<tspan font-family="cmcsc" font-size="10">F</tspan></text> 
</g> 
 </g> 
 </g> 
 </g> 
 </g> 
 <g> 
 <g stroke-width="1.0pt"> 
 <path d=" M  42.47913 213.20308 L  16.42264 187.14755  " style="fill:none"/> 
 <g> 
 <g transform="matrix(-0.7071,-0.70714,0.70714,-0.7071,16.42264,187.14755)"> 
 <g> 
 <g stroke-width="0.8pt"> 
 <g stroke-dasharray="none" stroke-dashoffset="0.0pt"> 
 <g stroke-linecap="round"> 
 <g stroke-linejoin="round"> 
 <path d=" M  -1.74 2.32 C  -1.595 1.45 0.0 0.14499 0.435 0.0 C  0.0 -0.14499 -1.595 -1.45 -1.74 -2.32  " style="fill:none"/> 
 </g> 
 </g> 
 </g> 
 </g> 
 </g> 
 </g> 
 </g> 
 <g> 
 <g> 
 <g transform="matrix(0.7071,0.70714,-0.70714,0.7071,15.91656,192.06203)"> 
 <g fill="rgb(0.0%,0.0%,0.0%)"> 
 <text style="stroke:none" transform="scale(1,-1) translate(0.0,0)" text-anchor="middle"  font-size="10"> 
</text> 
</g> 
 </g> 
 </g> 
 </g> 
 </g> 
 </g> 
 <g> 
 <g stroke-width="1.0pt"> 
 <path d=" M  71.33185 213.20308 L  97.38834 187.14755  " style="fill:none"/> 
 <g> 
 <g transform="matrix(0.7071,-0.70714,0.70714,0.7071,97.38834,187.14755)"> 
 <g> 
 <g stroke-width="0.8pt"> 
 <g stroke-dasharray="none" stroke-dashoffset="0.0pt"> 
 <g stroke-linecap="round"> 
 <g stroke-linejoin="round"> 
 <path d=" M  -1.74 2.32 C  -1.595 1.45 0.0 0.14499 0.435 0.0 C  0.0 -0.14499 -1.595 -1.45 -1.74 -2.32  " style="fill:none"/> 
 </g> 
 </g> 
 </g> 
 </g> 
 </g> 
 </g> 
 </g> 
 <g> 
 <g> 
 <g transform="matrix(0.7071,-0.70714,0.70714,0.7071,97.89441,192.06203)"> 
 <g fill="rgb(0.0%,0.0%,0.0%)"> 
 <text style="stroke:none" transform="scale(1,-1) translate(0.0,0)" text-anchor="middle"  font-size="10"> 
</text> 
</g> 
 </g> 
 </g> 
 </g> 
 </g> 
 </g> 
 <g> 
 <g stroke-width="1.0pt"> 
 <path d=" M  99.38461 156.29759 L  73.32813 130.24207  " style="fill:none"/> 
 <g> 
 <g transform="matrix(-0.7071,-0.70714,0.70714,-0.7071,73.32813,130.24207)"> 
 <g> 
 <g stroke-width="0.8pt"> 
 <g stroke-dasharray="none" stroke-dashoffset="0.0pt"> 
 <g stroke-linecap="round"> 
 <g stroke-linejoin="round"> 
 <path d=" M  -1.74 2.32 C  -1.595 1.45 0.0 0.14499 0.435 0.0 C  0.0 -0.14499 -1.595 -1.45 -1.74 -2.32  " style="fill:none"/> 
 </g> 
 </g> 
 </g> 
 </g> 
 </g> 
 </g> 
 </g> 
 <g> 
 <g> 
 <g transform="matrix(0.7071,0.70714,-0.70714,0.7071,72.82205,135.15654)"> 
 <g fill="rgb(0.0%,0.0%,0.0%)"> 
 <text style="stroke:none" transform="scale(1,-1) translate(0.0,0)" text-anchor="middle"  font-size="10"> 
</text> 
</g> 
 </g> 
 </g> 
 </g> 
 </g> 
 </g> 
 <g> 
 <g stroke-width="1.0pt"> 
 <path d=" M  128.23734 156.29759 L  154.29382 130.24207  " style="fill:none"/> 
 <g> 
 <g transform="matrix(0.7071,-0.70714,0.70714,0.7071,154.29382,130.24207)"> 
 <g> 
 <g stroke-width="0.8pt"> 
 <g stroke-dasharray="none" stroke-dashoffset="0.0pt"> 
 <g stroke-linecap="round"> 
 <g stroke-linejoin="round"> 
 <path d=" M  -1.74 2.32 C  -1.595 1.45 0.0 0.14499 0.435 0.0 C  0.0 -0.14499 -1.595 -1.45 -1.74 -2.32  " style="fill:none"/> 
 </g> 
 </g> 
 </g> 
 </g> 
 </g> 
 </g> 
 </g> 
 <g> 
 <g> 
 <g transform="matrix(0.7071,-0.70714,0.70714,0.7071,154.7999,135.15654)"> 
 <g fill="rgb(0.0%,0.0%,0.0%)"> 
 <text style="stroke:none" transform="scale(1,-1) translate(0.0,0)" text-anchor="middle"  font-size="10"> 
</text> 
</g> 
 </g> 
 </g> 
 </g> 
 </g> 
 </g> 
 <g> 
 <g stroke-width="1.0pt"> 
 <path d=" M  14.42636 156.29759 L  40.48285 130.24207  " style="fill:none"/> 
 <g> 
 <g transform="matrix(0.7071,-0.70714,0.70714,0.7071,40.48285,130.24207)"> 
 <g> 
 <g stroke-width="0.8pt"> 
 <g stroke-dasharray="none" stroke-dashoffset="0.0pt"> 
 <g stroke-linecap="round"> 
 <g stroke-linejoin="round"> 
 <path d=" M  -1.74 2.32 C  -1.595 1.45 0.0 0.14499 0.435 0.0 C  0.0 -0.14499 -1.595 -1.45 -1.74 -2.32  " style="fill:none"/> 
 </g> 
 </g> 
 </g> 
 </g> 
 </g> 
 </g> 
 </g> 
 <g> 
 <g> 
 <g transform="matrix(0.7071,-0.70714,0.70714,0.7071,40.98892,135.15654)"> 
 <g fill="rgb(0.0%,0.0%,0.0%)"> 
 <text style="stroke:none" transform="scale(1,-1) translate(0.0,0)" text-anchor="middle"  font-size="10"> 
</text> 
</g> 
 </g> 
 </g> 
 </g> 
 </g> 
 </g> 
 <g> 
 <g stroke-width="1.0pt"> 
 <path d=" M  56.90549 99.38461 L  56.90549 74.16685  " style="fill:none"/> 
 <g> 
 <g transform="matrix(0.0,-1.0,1.0,0.0,56.90549,74.16685)"> 
 <g> 
 <g stroke-width="0.8pt"> 
 <g stroke-dasharray="none" stroke-dashoffset="0.0pt"> 
 <g stroke-linecap="round"> 
 <g stroke-linejoin="round"> 
 <path d=" M  -1.74 2.32 C  -1.595 1.45 0.0 0.14499 0.435 0.0 C  0.0 -0.14499 -1.595 -1.45 -1.74 -2.32  " style="fill:none"/> 
 </g> 
 </g> 
 </g> 
 </g> 
 </g> 
 </g> 
 </g> 
 <g> 
 <g> 
 <g transform="matrix(0.0,-1.0,1.0,0.0,60.73846,75.5396)"> 
 <g fill="rgb(0.0%,0.0%,0.0%)"> 
 <text style="stroke:none" transform="scale(1,-1) translate(0.0,0)" text-anchor="middle"  font-size="10"> 
</text> 
</g> 
 </g> 
 </g> 
 </g> 
 </g> 
 </g> 
 </g> 
 </g> 
 </g> 
 </g> 
 </g> 
                                           </g> 
</svg> 
